<?xml version="1.0" encoding="UTF-8" standalone="no"?>
<!-- Created with Inkscape (http://www.inkscape.org/) -->

<svg
   width="420mm"
   height="297mm"
   viewBox="0 0 420 297"
   version="1.1"
   id="svg1"
   inkscape:version="1.3 (0e150ed6c4, 2023-07-21)"
   sodipodi:docname="cd-wall-rack-x1.svg"
   xmlns:inkscape="http://www.inkscape.org/namespaces/inkscape"
   xmlns:sodipodi="http://sodipodi.sourceforge.net/DTD/sodipodi-0.dtd"
   xmlns="http://www.w3.org/2000/svg"
   xmlns:svg="http://www.w3.org/2000/svg">
  <sodipodi:namedview
     id="namedview1"
     pagecolor="#505050"
     bordercolor="#eeeeee"
     borderopacity="1"
     inkscape:showpageshadow="0"
     inkscape:pageopacity="0"
     inkscape:pagecheckerboard="0"
     inkscape:deskcolor="#d1d1d1"
     inkscape:document-units="mm"
     inkscape:zoom="1.4142136"
     inkscape:cx="187.3833"
     inkscape:cy="50.911688"
     inkscape:window-width="1920"
     inkscape:window-height="1017"
     inkscape:window-x="2712"
     inkscape:window-y="1070"
     inkscape:window-maximized="1"
     inkscape:current-layer="layer1" />
  <defs
     id="defs1" />
  <g
     inkscape:label="Layer 1"
     inkscape:groupmode="layer"
     id="layer1">
    <rect
       style="fill:#ff0000;fill-opacity:1;stroke-width:0.721321;stroke-opacity:0.985417"
       id="rect1"
       width="145"
       height="42"
       x="0"
       y="0"
       rx="5.0828872"
       ry="5.0828872" />
    <g
       id="g2"
       transform="translate(0,-4)">
      <path
         id="path1"
         style="fill:#ffff00;fill-opacity:1;stroke-width:0.221021;stroke-opacity:0.985417"
         d="m 28.500043,32 a 1.75,1.75 0 0 0 -1.75028,1.749764 1.75,1.75 0 0 0 0.01602,0.219625 A 3.5,3.5 0 0 0 25,36.999695 3.5,3.5 0 0 0 28.500044,40.499739 3.5,3.5 0 0 0 32.000089,36.999695 3.5,3.5 0 0 0 30.234822,33.96112 1.75,1.75 0 0 0 30.249812,33.749764 1.75,1.75 0 0 0 28.500048,32 Z" />
      <path
         id="path1-8"
         style="fill:#ffff00;fill-opacity:1;stroke-width:0.221021;stroke-opacity:0.985417"
         d="m 115.00006,32 a 1.75,1.75 0 0 0 -1.75028,1.749764 1.75,1.75 0 0 0 0.016,0.219625 3.5,3.5 0 0 0 -1.76578,3.030306 3.5,3.5 0 0 0 3.50004,3.500044 3.5,3.5 0 0 0 3.50005,-3.500044 3.5,3.5 0 0 0 -1.76527,-3.038575 1.75,1.75 0 0 0 0.015,-0.211356 A 1.75,1.75 0 0 0 115.00007,32 Z" />
    </g>
    <path
       style="fill:#000080;stroke:#000080;stroke-width:0.290846;stroke-linecap:butt;stroke-linejoin:miter;stroke-dasharray:none;stroke-opacity:1"
       d="M 0,12.145423 H 145"
       id="path2"
       sodipodi:nodetypes="cc" />
    <path
       style="fill:#0000ff;stroke:#0000ff;stroke-width:0.290846;stroke-linecap:butt;stroke-linejoin:miter;stroke-dasharray:none;stroke-opacity:1"
       d="M 0,22.145423 H 145"
       id="path2-6"
       sodipodi:nodetypes="cc" />
  </g>
</svg>
