<?xml version="1.0" encoding="UTF-8" standalone="no"?>
<!-- Created with Inkscape (http://www.inkscape.org/) -->

<svg
   width="420mm"
   height="297mm"
   viewBox="0 0 420 297"
   version="1.1"
   id="svg1"
   inkscape:version="1.3 (0e150ed6c4, 2023-07-21)"
   sodipodi:docname="cd-wall-rack-x3.svg"
   xmlns:inkscape="http://www.inkscape.org/namespaces/inkscape"
   xmlns:sodipodi="http://sodipodi.sourceforge.net/DTD/sodipodi-0.dtd"
   xmlns="http://www.w3.org/2000/svg"
   xmlns:svg="http://www.w3.org/2000/svg">
  <sodipodi:namedview
     id="namedview1"
     pagecolor="#505050"
     bordercolor="#eeeeee"
     borderopacity="1"
     inkscape:showpageshadow="0"
     inkscape:pageopacity="0"
     inkscape:pagecheckerboard="0"
     inkscape:deskcolor="#d1d1d1"
     inkscape:document-units="mm"
     inkscape:zoom="0.70710678"
     inkscape:cx="771.4535"
     inkscape:cy="192.33304"
     inkscape:window-width="1920"
     inkscape:window-height="1017"
     inkscape:window-x="2712"
     inkscape:window-y="1070"
     inkscape:window-maximized="1"
     inkscape:current-layer="layer1" />
  <defs
     id="defs1" />
  <g
     inkscape:label="Layer 1"
     inkscape:groupmode="layer"
     id="layer1">
    <rect
       style="fill:#ff0000;fill-opacity:1;stroke-width:1.2508;stroke-opacity:0.985417"
       id="rect1"
       width="436"
       height="42"
       x="0"
       y="0"
       rx="5.9247866"
       ry="5.9247866" />
    <g
       id="g1"
       transform="translate(0,-5.2498695)">
      <path
         id="path1"
         style="fill:#ffff00;fill-opacity:1;stroke-width:0.221021;stroke-opacity:0.985417"
         d="m 33.500043,33 a 1.75,1.75 0 0 0 -1.75028,1.749764 1.75,1.75 0 0 0 0.01602,0.219625 A 3.5,3.5 0 0 0 30,37.999695 3.5,3.5 0 0 0 33.500044,41.499739 3.5,3.5 0 0 0 37.000089,37.999695 3.5,3.5 0 0 0 35.234822,34.96112 1.75,1.75 0 0 0 35.249812,34.749764 1.75,1.75 0 0 0 33.500048,33 Z" />
      <path
         id="path1-8"
         style="fill:#ffff00;fill-opacity:1;stroke-width:0.221021;stroke-opacity:0.985417"
         d="m 125.37504,33 a 1.75,1.75 0 0 0 -1.75028,1.749764 1.75,1.75 0 0 0 0.016,0.219625 3.5,3.5 0 0 0 -1.76578,3.030306 3.5,3.5 0 0 0 3.50004,3.500044 3.5,3.5 0 0 0 3.50005,-3.500044 3.5,3.5 0 0 0 -1.76527,-3.038575 1.75,1.75 0 0 0 0.015,-0.211356 A 1.75,1.75 0 0 0 125.37505,33 Z" />
      <path
         id="path1-6"
         style="fill:#ffff00;fill-opacity:1;stroke-width:0.221021;stroke-opacity:0.985417"
         d="m 217.25007,33 a 1.75,1.75 0 0 0 -1.75028,1.749764 1.75,1.75 0 0 0 0.016,0.219625 3.5,3.5 0 0 0 -1.76579,3.030306 3.5,3.5 0 0 0 3.50005,3.500044 3.5,3.5 0 0 0 3.50004,-3.500044 3.5,3.5 0 0 0 -1.76527,-3.038575 1.75,1.75 0 0 0 0.015,-0.211356 A 1.75,1.75 0 0 0 217.25006,33 Z" />
      <path
         id="path1-9"
         style="fill:#ffff00;fill-opacity:1;stroke-width:0.221021;stroke-opacity:0.985417"
         d="m 309.12507,33 a 1.75,1.75 0 0 0 -1.75028,1.749764 1.75,1.75 0 0 0 0.016,0.219625 3.5,3.5 0 0 0 -1.76579,3.030306 3.5,3.5 0 0 0 3.50005,3.500044 3.5,3.5 0 0 0 3.50004,-3.500044 3.5,3.5 0 0 0 -1.76527,-3.038575 1.75,1.75 0 0 0 0.015,-0.211356 A 1.75,1.75 0 0 0 309.12507,33 Z" />
      <path
         id="path1-5"
         style="fill:#ffff00;fill-opacity:1;stroke-width:0.221021;stroke-opacity:0.985417"
         d="m 401.00007,33 a 1.75,1.75 0 0 0 -1.75028,1.749764 1.75,1.75 0 0 0 0.016,0.219625 3.5,3.5 0 0 0 -1.76579,3.030306 3.5,3.5 0 0 0 3.50005,3.500044 3.5,3.5 0 0 0 3.50004,-3.500044 3.5,3.5 0 0 0 -1.76526,-3.038575 1.75,1.75 0 0 0 0.015,-0.211356 A 1.75,1.75 0 0 0 401.00007,33 Z" />
    </g>
    <path
       style="fill:#000080;stroke:#000080;stroke-width:0.5;stroke-linecap:butt;stroke-linejoin:miter;stroke-dasharray:none;stroke-opacity:1"
       d="M 0,12.25 H 436"
       id="path2"
       sodipodi:nodetypes="cc" />
    <path
       style="fill:#0000ff;stroke:#0000ff;stroke-width:0.5;stroke-linecap:butt;stroke-linejoin:miter;stroke-dasharray:none;stroke-opacity:1"
       d="M 0,22.25 H 436"
       id="path2-6"
       sodipodi:nodetypes="cc" />
  </g>
</svg>
